# xmcd CD database file
#
# Track frame offsets:
#	183
#	25008
#	50808
#	67118
#	81335
#	99433
#	116888
#	142553
#	157020
#	186773
#	204955
#	224548
#
# Disc length: 3253 seconds
#
# Revision: 0
# Processed by: cddbd v1.5.1PL0 Copyright (c) Steve Scherf et al.
# Submitted via: CDex 1.51
#
DISCID=ab0cb30c
DTITLE=Piano "C" Red - Piano "C" Red
DYEAR=1992
DGENRE=Blues
TTITLE0=Big John Big John
TTITLE1=Cab Driving Man
TTITLE2=Tin Can Alley
TTITLE3=Flat Foot Boogie
TTITLE4=Wish Me Well
TTITLE5=Diable Man
TTITLE6=New York And Chicago
TTITLE7=Miss Annie Lou
TTITLE8=Hobo Sam
TTITLE9=Piano "C" Red Is In Town
TTITLE10=Blues And Jazz Part One
TTITLE11=Blues And Jazz Part Two
EXTD=YEAR: 1992
EXTT0=
EXTT1=
EXTT2=
EXTT3=
EXTT4=
EXTT5=
EXTT6=
EXTT7=
EXTT8=
EXTT9=
EXTT10=
EXTT11=
PLAYORDER=
